# xmcd CD database file
#
# Track frame offsets:
#	150
#	21032
#	83899
#	122312
#	169217
#	176277
#
# Disc length: 3115 seconds
#
# Revision: 3
# Processed by: cddbd v1.5.2PL0 Copyright (c) Steve Scherf et al.
# Submitted via: CDex 1.70beta2
#
DISCID=3a0c2906
DTITLE=Joe Lovano, 1952-  and Dave Douglas, 1963- - Sound Prints - Live At Monterey Jazz Festival
DYEAR=2015
DGENRE=Jazz Post-Bop
TTITLE0=Joe Lovano - Sound Prints
TTITLE1=Dave Douglas - Sprints
TTITLE2=Wayne Shorter - Destination Unknown
TTITLE3=Wayne Shorter - To Sail Beyond The Sunset
TTITLE4=Joe Lovano - Weatherman
TTITLE5=Dave Douglas - Power Ranger
EXTD=YEAR: 2015
EXTT0=
EXTT1=
EXTT2=
EXTT3=
EXTT4=
EXTT5=
PLAYORDER=
